<svg id="svg" version="1.1" width="400" height="254.39999999999998" viewBox="0 0 400 254.39999999999998" xmlns="http://www.w3.org/2000/svg" xmlns:xlink="http://www.w3.org/1999/xlink"><g id="svgg"><path id="path0" d="M373.346 0.313 C 372.331 0.447,371.501 0.661,371.501 0.787 C 371.501 0.914,371.101 1.018,370.611 1.018 C 370.121 1.018,369.720 1.119,369.720 1.243 C 369.720 1.367,369.090 1.547,368.321 1.643 C 367.551 1.739,366.921 1.911,366.921 2.025 C 366.921 2.138,366.291 2.310,365.522 2.406 C 364.752 2.502,364.122 2.680,364.122 2.802 C 364.122 2.923,363.607 3.100,362.977 3.194 C 362.347 3.288,361.832 3.467,361.832 3.591 C 361.832 3.715,361.546 3.817,361.196 3.817 C 360.846 3.817,360.560 3.918,360.560 4.042 C 360.560 4.166,360.045 4.345,359.415 4.440 C 358.785 4.534,358.270 4.711,358.270 4.832 C 358.270 4.953,357.640 5.131,356.870 5.227 C 356.101 5.323,355.471 5.493,355.471 5.603 C 355.471 5.714,354.898 5.883,354.198 5.980 C 353.499 6.076,352.926 6.258,352.926 6.385 C 352.926 6.512,352.697 6.616,352.417 6.616 C 352.137 6.616,351.908 6.719,351.908 6.844 C 351.908 6.970,351.078 7.156,350.064 7.257 C 349.049 7.358,348.158 7.536,348.084 7.652 C 348.009 7.769,346.721 7.944,345.221 8.041 C 343.721 8.138,342.494 8.305,342.494 8.411 C 342.494 8.518,341.005 8.688,339.186 8.788 C 337.366 8.889,335.878 9.071,335.878 9.193 C 335.878 9.315,335.076 9.415,334.097 9.415 C 333.117 9.415,332.316 9.513,332.316 9.633 C 332.316 9.753,331.259 9.930,329.969 10.028 C 328.678 10.125,327.561 10.302,327.488 10.421 C 327.414 10.540,326.810 10.719,326.145 10.818 C 325.480 10.918,324.936 11.091,324.936 11.202 C 324.936 11.314,324.483 11.482,323.929 11.576 C 323.278 11.686,322.870 11.910,322.775 12.209 C 322.694 12.464,322.346 12.743,322.001 12.829 C 321.656 12.916,321.374 13.099,321.374 13.236 C 321.374 13.374,321.211 13.486,321.012 13.486 C 320.612 13.486,319.084 14.914,319.084 15.287 C 319.084 15.416,318.911 15.522,318.699 15.522 C 318.488 15.522,316.651 17.182,314.618 19.211 C 312.375 21.450,310.725 22.901,310.423 22.901 C 310.148 22.901,309.924 23.015,309.924 23.155 C 309.924 23.299,309.203 23.410,308.270 23.410 C 307.360 23.410,306.616 23.508,306.616 23.628 C 306.616 23.748,305.907 23.920,305.040 24.011 C 304.173 24.101,303.400 24.272,303.322 24.390 C 303.244 24.507,302.866 24.681,302.481 24.775 C 301.458 25.025,301.406 27.377,302.417 27.631 C 302.767 27.719,303.053 27.887,303.053 28.005 C 303.053 28.123,303.740 28.297,304.580 28.392 C 305.420 28.487,306.107 28.664,306.107 28.786 C 306.107 28.908,306.344 29.008,306.634 29.008 C 307.731 29.008,308.116 29.797,307.379 30.534 C 306.835 31.078,303.308 31.312,303.308 30.804 C 303.308 30.673,302.506 30.486,301.527 30.390 C 300.547 30.293,299.746 30.114,299.746 29.993 C 299.746 29.871,298.028 29.771,295.929 29.771 C 293.554 29.771,292.112 29.867,292.112 30.025 C 292.112 30.165,291.937 30.280,291.722 30.280 C 291.508 30.280,291.268 30.447,291.190 30.652 C 291.111 30.856,290.806 31.100,290.511 31.194 C 290.216 31.288,289.551 31.819,289.032 32.375 C 288.132 33.340,286.514 33.629,286.514 32.824 C 286.514 32.707,286.170 32.535,285.751 32.443 C 285.331 32.351,284.987 32.170,284.987 32.041 C 284.987 31.912,284.816 31.807,284.606 31.807 C 284.396 31.807,284.224 31.697,284.224 31.564 C 284.224 31.430,283.795 31.242,283.270 31.145 C 282.745 31.049,282.234 30.843,282.134 30.688 C 281.864 30.270,275.523 30.304,275.382 30.725 C 275.324 30.900,275.110 31.043,274.907 31.043 C 274.705 31.043,274.473 31.215,274.392 31.425 C 274.312 31.635,274.081 31.807,273.879 31.807 C 273.678 31.807,273.247 32.093,272.923 32.443 C 272.599 32.793,272.232 33.082,272.108 33.086 C 271.984 33.090,271.549 33.433,271.141 33.849 C 270.733 34.265,270.298 34.606,270.174 34.606 C 270.051 34.606,269.698 34.876,269.390 35.206 C 269.082 35.537,268.572 35.888,268.257 35.987 C 267.942 36.086,267.684 36.273,267.684 36.404 C 267.684 36.534,267.509 36.641,267.295 36.641 C 267.080 36.641,266.839 36.813,266.759 37.023 C 266.678 37.233,266.453 37.405,266.258 37.405 C 266.063 37.405,265.903 37.506,265.903 37.631 C 265.903 37.755,265.503 37.932,265.013 38.024 C 264.523 38.116,264.122 38.299,264.122 38.431 C 264.122 38.563,263.664 38.744,263.104 38.834 C 262.545 38.923,262.087 39.091,262.087 39.207 C 262.087 39.322,261.686 39.492,261.196 39.584 C 260.706 39.676,260.305 39.853,260.305 39.977 C 260.305 40.102,259.914 40.204,259.436 40.204 C 258.958 40.204,258.528 40.313,258.482 40.446 C 258.435 40.579,257.595 40.768,256.616 40.865 C 255.636 40.963,254.753 41.169,254.653 41.323 C 254.398 41.717,234.153 41.718,233.897 41.323 C 233.797 41.170,232.856 40.966,231.807 40.871 C 230.757 40.776,229.860 40.587,229.813 40.451 C 229.767 40.315,229.280 40.204,228.732 40.204 C 228.184 40.204,227.735 40.100,227.735 39.974 C 227.735 39.848,227.048 39.665,226.209 39.567 C 225.369 39.470,224.682 39.300,224.682 39.190 C 224.682 39.081,223.938 38.911,223.028 38.813 C 222.118 38.716,221.374 38.542,221.374 38.427 C 221.374 38.312,220.687 38.138,219.847 38.041 C 219.008 37.943,218.321 37.760,218.321 37.634 C 218.321 37.508,217.920 37.405,217.430 37.405 C 216.940 37.405,216.539 37.299,216.539 37.170 C 216.539 37.042,215.767 36.855,214.822 36.755 C 213.877 36.655,213.044 36.480,212.970 36.365 C 212.896 36.251,211.321 36.077,209.471 35.979 C 207.621 35.882,206.107 35.721,206.107 35.622 C 206.107 35.523,204.074 35.359,201.590 35.259 C 199.106 35.158,197.036 34.970,196.989 34.841 C 196.942 34.711,196.456 34.606,195.908 34.606 C 195.359 34.606,194.911 34.501,194.911 34.374 C 194.911 34.246,194.453 34.064,193.893 33.969 C 193.333 33.875,192.875 33.702,192.875 33.586 C 192.875 33.469,192.532 33.298,192.112 33.206 C 191.692 33.114,191.349 32.945,191.349 32.832 C 191.349 32.718,191.062 32.553,190.712 32.465 C 190.363 32.378,190.076 32.194,190.076 32.056 C 190.076 31.919,189.905 31.807,189.695 31.807 C 189.485 31.807,189.313 31.705,189.313 31.580 C 189.313 31.455,188.999 31.274,188.616 31.178 C 188.232 31.082,187.860 30.907,187.787 30.790 C 187.715 30.674,185.911 30.495,183.777 30.393 C 181.644 30.292,179.898 30.125,179.898 30.023 C 179.898 29.921,179.496 29.772,179.005 29.693 C 177.836 29.503,177.334 28.966,177.168 27.728 C 177.093 27.172,176.933 26.718,176.811 26.718 C 176.690 26.718,176.590 26.260,176.590 25.700 C 176.590 25.140,176.476 24.682,176.336 24.682 C 176.196 24.682,176.081 24.396,176.081 24.046 C 176.081 23.579,175.946 23.410,175.573 23.410 C 175.293 23.410,175.064 23.310,175.064 23.188 C 175.064 23.066,174.349 22.886,173.476 22.787 C 172.603 22.688,171.824 22.502,171.744 22.373 C 171.665 22.245,170.690 22.064,169.578 21.972 C 168.467 21.881,167.491 21.706,167.411 21.583 C 167.330 21.461,163.523 21.288,158.950 21.199 C 154.378 21.110,150.636 20.942,150.636 20.824 C 150.636 20.707,147.545 20.611,143.766 20.611 C 139.355 20.611,136.896 20.520,136.896 20.356 C 136.896 20.196,135.199 20.102,132.316 20.102 C 129.432 20.102,127.735 20.196,127.735 20.356 C 127.735 20.496,127.506 20.611,127.226 20.611 C 126.947 20.611,126.718 20.723,126.718 20.860 C 126.718 20.998,126.431 21.182,126.081 21.270 C 125.732 21.357,125.445 21.524,125.445 21.639 C 125.445 21.754,125.203 21.926,124.906 22.020 C 124.609 22.114,123.989 22.580,123.528 23.055 C 123.066 23.530,122.605 23.919,122.502 23.919 C 122.400 23.919,121.938 24.291,121.475 24.746 C 120.355 25.846,119.847 26.261,119.847 26.076 C 119.847 25.992,120.821 24.967,122.010 23.799 C 124.092 21.754,124.173 21.631,124.173 20.525 L 124.173 19.375 122.739 19.196 C 120.702 18.941,110.932 19.199,110.727 19.513 C 110.635 19.654,109.987 19.846,109.288 19.939 C 108.588 20.032,107.977 20.222,107.930 20.360 C 107.884 20.498,107.569 20.611,107.231 20.611 C 106.892 20.611,106.616 20.717,106.616 20.847 C 106.616 20.977,105.986 21.162,105.216 21.258 C 104.447 21.354,103.817 21.526,103.817 21.640 C 103.817 21.753,103.187 21.925,102.417 22.021 C 101.648 22.117,101.018 22.290,101.018 22.406 C 101.018 22.521,100.216 22.694,99.237 22.791 C 98.257 22.888,97.455 23.066,97.455 23.188 C 97.455 23.310,96.892 23.410,96.204 23.410 C 95.516 23.410,94.915 23.515,94.869 23.644 C 94.822 23.772,92.923 23.960,90.649 24.061 C 88.375 24.161,86.514 24.328,86.514 24.430 C 86.514 24.533,85.025 24.699,83.206 24.800 C 81.387 24.900,79.898 25.075,79.898 25.187 C 79.898 25.300,78.982 25.473,77.863 25.573 C 76.743 25.672,75.827 25.855,75.827 25.981 C 75.827 26.106,75.483 26.209,75.064 26.209 C 74.644 26.209,74.300 26.311,74.300 26.437 C 74.300 26.562,72.006 26.705,69.202 26.755 C 65.851 26.814,64.041 26.941,63.922 27.126 C 63.822 27.281,63.311 27.486,62.786 27.583 C 62.261 27.679,61.832 27.859,61.832 27.981 C 61.832 28.104,61.489 28.279,61.069 28.372 C 60.649 28.464,60.305 28.645,60.305 28.773 C 60.305 28.902,60.019 29.008,59.669 29.008 C 59.319 29.008,59.033 29.113,59.033 29.242 C 59.033 29.371,58.690 29.552,58.270 29.644 C 57.850 29.736,57.506 29.907,57.506 30.023 C 57.506 30.140,57.048 30.313,56.489 30.407 C 55.929 30.502,55.471 30.673,55.471 30.787 C 55.471 30.902,54.898 31.074,54.198 31.170 C 53.499 31.267,52.926 31.449,52.926 31.576 C 52.926 31.703,52.468 31.807,51.908 31.807 C 51.349 31.807,50.891 31.912,50.891 32.041 C 50.891 32.169,49.746 32.356,48.346 32.455 C 46.947 32.554,45.802 32.722,45.802 32.827 C 45.802 32.932,44.828 33.100,43.639 33.199 C 42.449 33.298,41.476 33.468,41.476 33.578 C 41.476 33.687,40.674 33.855,39.695 33.952 C 38.715 34.049,37.913 34.235,37.913 34.367 C 37.913 34.498,37.455 34.606,36.896 34.606 C 36.336 34.606,35.878 34.704,35.878 34.825 C 35.878 34.945,35.285 35.114,34.561 35.200 C 33.837 35.285,33.179 35.455,33.098 35.578 C 33.018 35.700,32.385 35.875,31.693 35.968 C 31.001 36.060,30.371 36.233,30.294 36.352 C 30.216 36.471,29.723 36.647,29.198 36.743 C 28.674 36.840,28.244 37.028,28.244 37.162 C 28.244 37.295,28.073 37.405,27.863 37.405 C 27.653 37.405,27.481 37.514,27.481 37.648 C 27.481 37.781,27.080 37.966,26.590 38.058 C 26.101 38.149,25.700 38.314,25.700 38.422 C 25.700 38.531,25.299 38.695,24.809 38.787 C 24.319 38.879,23.919 39.054,23.919 39.175 C 23.919 39.296,23.461 39.473,22.901 39.567 C 22.341 39.662,21.883 39.844,21.883 39.971 C 21.883 40.099,21.711 40.204,21.501 40.204 C 21.291 40.204,21.120 40.303,21.120 40.425 C 21.120 40.548,20.662 40.721,20.102 40.810 C 19.542 40.900,19.084 41.071,19.084 41.192 C 19.084 41.312,18.626 41.484,18.066 41.574 C 17.506 41.663,17.048 41.848,17.048 41.985 C 17.048 42.121,16.590 42.306,16.031 42.396 C 15.471 42.485,15.013 42.659,15.013 42.781 C 15.013 42.903,14.841 43.003,14.631 43.003 C 14.421 43.003,14.249 43.116,14.249 43.254 C 14.249 43.392,13.791 43.579,13.232 43.668 C 12.672 43.758,12.214 43.922,12.214 44.033 C 12.214 44.144,11.870 44.310,11.450 44.402 C 11.031 44.494,10.687 44.670,10.687 44.792 C 10.687 44.915,10.290 45.090,9.805 45.181 C 9.274 45.280,8.865 45.531,8.776 45.811 C 8.695 46.066,8.290 46.349,7.877 46.440 C 7.463 46.531,7.125 46.703,7.125 46.822 C 7.125 46.942,6.872 47.120,6.564 47.217 C 6.256 47.315,5.847 47.552,5.655 47.743 C 5.464 47.935,5.151 48.092,4.961 48.092 C 4.770 48.092,4.542 48.321,4.453 48.601 C 4.364 48.882,4.068 49.109,3.792 49.109 C 3.517 49.109,3.228 49.277,3.149 49.481 C 3.071 49.686,2.782 49.925,2.508 50.012 C 1.831 50.226,0.706 51.371,0.318 52.238 C -0.279 53.575,0.158 66.158,0.802 66.158 C 0.921 66.158,1.018 66.616,1.018 67.176 C 1.018 67.735,1.120 68.193,1.246 68.193 C 1.371 68.193,1.555 69.109,1.654 70.229 C 1.753 71.349,1.925 72.265,2.037 72.265 C 2.149 72.265,2.320 72.952,2.417 73.791 C 2.515 74.631,2.681 75.318,2.788 75.318 C 2.894 75.318,3.056 76.034,3.147 76.908 C 3.238 77.783,3.426 78.537,3.565 78.584 C 3.703 78.630,3.817 79.002,3.817 79.411 C 3.817 79.819,3.921 80.153,4.047 80.153 C 4.174 80.153,4.357 80.725,4.453 81.425 C 4.549 82.125,4.718 82.697,4.829 82.697 C 4.940 82.697,5.109 83.327,5.205 84.097 C 5.301 84.866,5.485 85.496,5.613 85.496 C 5.741 85.496,5.920 85.954,6.009 86.514 C 6.099 87.074,6.272 87.532,6.394 87.532 C 6.516 87.532,6.616 87.761,6.616 88.041 C 6.616 88.321,6.729 88.550,6.867 88.550 C 7.006 88.550,7.192 89.008,7.281 89.567 C 7.371 90.127,7.543 90.585,7.663 90.585 C 7.784 90.585,7.955 91.043,8.045 91.603 C 8.134 92.163,8.306 92.621,8.426 92.621 C 8.547 92.621,8.719 93.079,8.808 93.639 C 8.898 94.198,9.071 94.656,9.193 94.656 C 9.315 94.656,9.415 94.828,9.415 95.038 C 9.415 95.248,9.528 95.420,9.666 95.420 C 9.804 95.420,9.991 95.878,10.080 96.438 C 10.170 96.997,10.338 97.455,10.454 97.455 C 10.569 97.455,10.743 97.885,10.839 98.410 C 10.936 98.934,11.124 99.435,11.258 99.522 C 11.391 99.608,11.563 101.584,11.640 103.911 C 11.717 106.238,11.878 108.142,11.997 108.142 C 12.116 108.142,12.214 109.059,12.214 110.178 C 12.214 111.298,12.315 112.214,12.439 112.214 C 12.563 112.214,12.743 112.844,12.839 113.613 C 12.935 114.383,13.105 115.013,13.217 115.013 C 13.329 115.013,13.494 115.471,13.584 116.031 C 13.673 116.590,13.845 117.048,13.965 117.048 C 14.086 117.048,14.258 117.506,14.347 118.066 C 14.437 118.626,14.623 119.084,14.761 119.084 C 14.900 119.084,15.013 119.256,15.013 119.466 C 15.013 119.676,15.118 119.847,15.247 119.847 C 15.376 119.847,15.557 120.191,15.649 120.611 C 15.741 121.031,15.913 121.374,16.031 121.374 C 16.148 121.374,16.320 121.718,16.412 122.137 C 16.504 122.557,16.673 122.901,16.786 122.901 C 16.899 122.901,17.067 123.302,17.159 123.791 C 17.251 124.281,17.435 124.682,17.569 124.682 C 17.702 124.682,17.812 124.854,17.812 125.064 C 17.812 125.274,17.917 125.445,18.046 125.445 C 18.175 125.445,18.356 125.789,18.448 126.209 C 18.540 126.628,18.712 126.972,18.830 126.972 C 18.947 126.972,19.119 127.316,19.211 127.735 C 19.303 128.155,19.472 128.499,19.585 128.499 C 19.698 128.499,19.866 128.899,19.958 129.389 C 20.050 129.879,20.234 130.280,20.368 130.280 C 20.501 130.280,20.611 130.452,20.611 130.662 C 20.611 130.872,20.716 131.043,20.845 131.043 C 20.974 131.043,21.155 131.387,21.247 131.807 C 21.339 132.226,21.520 132.570,21.649 132.570 C 21.778 132.570,21.887 132.713,21.892 132.888 C 21.896 133.063,22.121 133.664,22.392 134.224 C 22.662 134.784,22.887 135.385,22.892 135.560 C 22.897 135.735,23.015 135.878,23.155 135.878 C 23.295 135.878,23.410 136.221,23.410 136.641 C 23.410 137.061,23.308 137.405,23.183 137.405 C 23.058 137.405,22.884 137.691,22.796 138.041 C 22.708 138.391,22.533 138.677,22.407 138.677 C 22.281 138.677,22.102 139.020,22.010 139.440 C 21.918 139.860,21.746 140.204,21.628 140.204 C 21.511 140.204,21.339 140.547,21.247 140.967 C 21.155 141.387,20.974 141.730,20.845 141.730 C 20.716 141.730,20.611 141.959,20.611 142.239 C 20.611 142.519,20.496 142.748,20.356 142.748 C 20.205 142.748,20.102 143.681,20.102 145.038 C 20.102 146.395,20.205 147.328,20.356 147.328 C 20.518 147.328,20.611 149.321,20.611 152.799 C 20.611 155.808,20.709 158.270,20.829 158.270 C 20.948 158.270,21.130 160.817,21.232 163.930 C 21.334 167.042,21.506 169.647,21.614 169.718 C 21.722 169.789,21.893 171.678,21.993 173.915 C 22.094 176.153,22.276 178.045,22.398 178.121 C 22.520 178.196,22.701 180.345,22.799 182.895 C 22.898 185.445,23.075 187.532,23.194 187.532 C 23.313 187.532,23.410 194.688,23.410 203.435 C 23.410 212.182,23.313 219.338,23.196 219.338 C 23.078 219.338,22.904 222.282,22.809 225.879 C 22.714 229.476,22.540 232.482,22.422 232.558 C 22.305 232.635,22.125 234.071,22.023 235.749 C 21.922 237.428,21.744 238.860,21.628 238.931 C 21.513 239.003,21.336 240.406,21.234 242.050 C 21.133 243.693,20.951 245.038,20.831 245.038 C 20.710 245.038,20.611 246.469,20.611 248.219 C 20.611 250.170,20.709 251.399,20.865 251.399 C 21.005 251.399,21.120 251.555,21.120 251.744 C 21.120 252.161,22.261 253.435,22.634 253.435 C 22.781 253.435,22.901 253.538,22.901 253.665 C 22.901 254.133,24.576 254.453,27.025 254.453 C 29.723 254.453,33.079 254.009,33.079 253.652 C 33.079 253.533,33.422 253.435,33.842 253.435 C 34.262 253.435,34.606 253.334,34.606 253.210 C 34.606 253.085,35.121 252.907,35.751 252.812 C 36.380 252.718,36.896 252.548,36.896 252.434 C 36.896 252.321,37.354 252.155,37.913 252.065 C 38.473 251.976,38.931 251.791,38.931 251.654 C 38.931 251.517,39.389 251.332,39.949 251.243 C 40.509 251.153,40.967 250.980,40.967 250.858 C 40.967 250.736,41.139 250.636,41.349 250.636 C 41.559 250.636,41.730 250.527,41.730 250.393 C 41.730 250.260,42.131 250.075,42.621 249.983 C 43.111 249.891,43.511 249.723,43.511 249.610 C 43.511 249.497,43.855 249.329,44.275 249.237 C 44.695 249.144,45.038 248.976,45.038 248.862 C 45.038 248.749,45.324 248.584,45.674 248.496 C 46.024 248.408,46.310 248.224,46.310 248.087 C 46.310 247.949,46.482 247.837,46.692 247.837 C 46.902 247.837,47.074 247.732,47.074 247.603 C 47.074 247.474,47.417 247.293,47.837 247.201 C 48.257 247.109,48.601 246.930,48.601 246.804 C 48.601 246.678,48.887 246.503,49.237 246.415 C 49.587 246.327,49.873 246.153,49.873 246.028 C 49.873 245.904,50.048 245.802,50.262 245.802 C 50.477 245.802,50.718 245.630,50.799 245.420 C 50.879 245.210,51.110 245.038,51.312 245.038 C 51.513 245.038,51.930 244.772,52.239 244.447 C 52.547 244.121,52.999 243.781,53.244 243.691 C 53.489 243.601,53.690 243.417,53.690 243.282 C 53.690 243.147,53.926 242.962,54.215 242.870 C 54.505 242.778,55.361 242.083,56.118 241.326 C 56.876 240.569,57.670 239.949,57.883 239.949 C 58.095 239.949,58.270 239.843,58.270 239.714 C 58.270 239.495,58.598 239.152,60.556 237.325 C 60.978 236.931,61.323 236.494,61.323 236.354 C 61.323 236.214,62.055 235.378,62.949 234.497 C 63.843 233.616,64.650 232.656,64.743 232.364 C 64.836 232.072,65.129 231.764,65.394 231.679 C 65.660 231.595,65.948 231.303,66.035 231.030 C 66.121 230.758,66.299 230.534,66.429 230.534 C 66.560 230.534,66.667 230.398,66.667 230.231 C 66.667 230.064,67.125 229.501,67.684 228.979 C 68.244 228.457,68.702 227.915,68.702 227.775 C 68.702 227.635,69.030 227.192,69.431 226.791 C 69.832 226.390,70.239 225.814,70.335 225.512 C 70.431 225.210,70.722 224.895,70.982 224.812 C 71.242 224.730,71.518 224.495,71.597 224.291 C 71.895 223.515,72.265 223.965,72.265 225.102 L 72.265 226.286 75.126 226.123 C 76.700 226.033,78.027 225.843,78.074 225.702 C 78.121 225.561,78.551 225.445,79.029 225.445 C 79.507 225.445,79.898 225.342,79.898 225.216 C 79.898 225.090,80.585 224.907,81.425 224.809 C 82.265 224.712,82.952 224.540,82.952 224.427 C 82.952 224.315,83.667 224.141,84.542 224.040 C 85.417 223.940,86.198 223.754,86.279 223.627 C 86.359 223.500,87.018 223.326,87.742 223.240 C 88.466 223.155,89.059 222.986,89.059 222.865 C 89.059 222.745,89.402 222.646,89.822 222.646 C 90.242 222.646,90.585 222.540,90.585 222.410 C 90.585 222.280,91.215 222.095,91.985 221.999 C 92.754 221.903,93.384 221.732,93.384 221.619 C 93.384 221.507,94.128 221.335,95.038 221.237 C 95.948 221.140,96.692 220.970,96.692 220.860 C 96.692 220.751,97.379 220.581,98.219 220.483 C 99.059 220.386,99.746 220.203,99.746 220.077 C 99.746 219.951,100.089 219.847,100.509 219.847 C 100.929 219.847,101.272 219.746,101.272 219.623 C 101.272 219.499,102.131 219.318,103.181 219.219 C 104.230 219.121,105.089 218.951,105.089 218.841 C 105.089 218.731,105.891 218.562,106.870 218.465 C 107.850 218.369,108.651 218.189,108.651 218.066 C 108.651 217.943,109.453 217.764,110.433 217.667 C 111.412 217.570,112.214 217.392,112.214 217.270 C 112.214 217.148,112.500 217.048,112.850 217.048 C 113.200 217.048,113.486 216.941,113.486 216.809 C 113.486 216.678,114.001 216.493,114.631 216.399 C 115.261 216.304,115.776 216.140,115.776 216.034 C 115.776 215.928,116.234 215.768,116.794 215.678 C 117.354 215.589,117.812 215.417,117.812 215.297 C 117.812 215.176,118.270 215.005,118.830 214.915 C 119.389 214.825,119.847 214.639,119.847 214.501 C 119.847 214.363,120.134 214.249,120.483 214.249 C 120.833 214.249,121.120 214.140,121.120 214.006 C 121.120 213.873,121.520 213.688,122.010 213.596 C 122.500 213.505,122.901 213.338,122.901 213.226 C 122.901 213.114,123.359 212.944,123.919 212.850 C 124.478 212.755,124.936 212.573,124.936 212.446 C 124.936 212.318,125.050 212.214,125.189 212.214 C 125.597 212.214,127.481 211.346,127.481 211.158 C 127.481 211.064,127.939 210.909,128.499 210.814 C 129.059 210.720,129.517 210.543,129.517 210.422 C 129.517 210.300,129.917 210.126,130.407 210.034 C 130.897 209.942,131.298 209.778,131.298 209.669 C 131.298 209.560,131.698 209.396,132.188 209.304 C 132.678 209.212,133.079 209.028,133.079 208.894 C 133.079 208.761,133.251 208.651,133.461 208.651 C 133.670 208.651,133.842 208.546,133.842 208.417 C 133.842 208.288,134.186 208.107,134.606 208.015 C 135.025 207.923,135.369 207.751,135.369 207.634 C 135.369 207.516,135.712 207.344,136.132 207.252 C 136.552 207.160,136.896 206.993,136.896 206.883 C 136.896 206.772,137.354 206.608,137.913 206.518 C 138.473 206.429,138.931 206.242,138.931 206.104 C 138.931 205.966,139.103 205.852,139.313 205.852 C 139.523 205.852,139.695 205.751,139.695 205.626 C 139.695 205.502,140.095 205.325,140.585 205.233 C 141.075 205.141,141.476 204.957,141.476 204.823 C 141.476 204.689,141.648 204.580,141.858 204.580 C 142.067 204.580,142.239 204.686,142.239 204.816 C 142.239 204.946,142.869 205.131,143.639 205.227 C 144.408 205.323,145.038 205.503,145.038 205.627 C 145.038 205.751,145.725 205.852,146.565 205.852 C 147.405 205.852,148.092 205.748,148.092 205.620 C 148.092 205.493,148.550 205.311,149.109 205.216 C 149.669 205.122,150.127 204.951,150.127 204.836 C 150.127 204.722,150.700 204.549,151.399 204.453 C 152.099 204.357,152.672 204.179,152.672 204.059 C 152.672 203.938,153.074 203.764,153.565 203.672 C 154.057 203.580,154.521 203.403,154.598 203.279 C 154.675 203.155,155.065 203.053,155.465 203.053 C 155.864 203.053,156.231 202.935,156.279 202.791 C 156.327 202.646,157.396 202.457,158.654 202.371 C 159.912 202.284,161.026 202.087,161.128 201.934 C 161.254 201.745,161.317 201.766,161.319 201.996 C 161.321 202.184,161.094 202.398,160.814 202.471 C 160.533 202.544,160.305 202.818,160.305 203.083 C 160.305 203.347,160.191 203.562,160.051 203.562 C 159.911 203.562,159.796 203.906,159.796 204.326 C 159.796 204.746,159.911 205.089,160.051 205.089 C 160.191 205.089,160.305 205.244,160.305 205.434 C 160.305 206.015,161.519 207.126,162.333 207.289 C 162.757 207.373,163.104 207.525,163.104 207.626 C 163.104 207.728,166.396 207.892,170.420 207.991 C 174.591 208.094,177.772 208.275,177.820 208.412 C 177.867 208.544,178.353 208.651,178.902 208.651 C 179.450 208.651,179.898 208.755,179.898 208.881 C 179.898 209.007,180.585 209.190,181.425 209.288 C 182.265 209.385,182.952 209.557,182.952 209.670 C 182.952 209.783,183.524 209.955,184.224 210.051 C 184.924 210.147,185.496 210.323,185.496 210.441 C 185.496 210.559,186.011 210.733,186.641 210.828 C 187.271 210.922,187.786 211.101,187.786 211.225 C 187.786 211.349,188.073 211.450,188.422 211.450 C 188.772 211.450,189.059 211.558,189.059 211.689 C 189.059 211.821,189.574 212.005,190.204 212.100 C 190.833 212.194,191.349 212.358,191.349 212.465 C 191.349 212.571,191.807 212.731,192.366 212.820 C 192.926 212.910,193.384 213.083,193.384 213.206 C 193.384 213.328,193.897 213.505,194.523 213.599 C 195.150 213.693,195.729 213.878,195.811 214.010 C 195.892 214.141,196.181 214.249,196.453 214.249 C 196.724 214.249,196.947 214.363,196.947 214.501 C 196.947 214.639,197.405 214.825,197.964 214.915 C 198.524 215.005,198.982 215.167,198.982 215.276 C 198.982 215.385,199.555 215.553,200.254 215.649 C 200.954 215.745,201.527 215.915,201.527 216.026 C 201.527 216.137,201.927 216.304,202.417 216.395 C 202.907 216.487,203.308 216.672,203.308 216.805 C 203.308 216.939,203.594 217.048,203.944 217.048 C 204.294 217.048,204.580 217.152,204.580 217.279 C 204.580 217.406,205.153 217.588,205.852 217.684 C 206.552 217.781,207.125 217.950,207.125 218.062 C 207.125 218.173,207.525 218.339,208.015 218.431 C 208.505 218.523,208.906 218.697,208.906 218.817 C 208.906 218.938,209.478 219.115,210.178 219.211 C 210.878 219.307,211.450 219.490,211.450 219.617 C 211.450 219.744,211.737 219.847,212.087 219.847 C 212.436 219.847,212.723 219.952,212.723 220.079 C 212.723 220.207,213.209 220.393,213.804 220.492 C 214.399 220.592,214.949 220.773,215.027 220.895 C 215.105 221.017,215.906 221.192,216.808 221.284 C 217.710 221.376,218.510 221.546,218.587 221.662 C 218.663 221.778,220.696 221.950,223.103 222.045 C 225.511 222.140,227.481 222.314,227.481 222.432 C 227.481 222.550,228.111 222.646,228.880 222.646 C 229.650 222.646,230.280 222.750,230.280 222.876 C 230.280 223.002,230.967 223.185,231.807 223.282 C 232.646 223.380,233.333 223.562,233.333 223.686 C 233.333 223.811,233.791 223.986,234.351 224.075 C 234.911 224.165,235.369 224.329,235.369 224.440 C 235.369 224.551,235.712 224.717,236.132 224.809 C 236.552 224.901,236.896 225.082,236.896 225.211 C 236.896 225.340,237.125 225.445,237.405 225.445 C 237.684 225.445,237.913 225.551,237.913 225.680 C 237.913 225.808,238.257 225.989,238.677 226.081 C 239.097 226.174,239.440 226.342,239.440 226.456 C 239.440 226.569,239.754 226.741,240.137 226.837 C 240.521 226.934,240.917 227.146,241.019 227.310 C 241.150 227.523,242.743 227.608,246.564 227.608 C 250.386 227.608,251.979 227.523,252.111 227.310 C 252.212 227.146,252.609 226.934,252.992 226.837 C 253.376 226.741,253.690 226.573,253.690 226.464 C 253.690 226.355,254.090 226.190,254.580 226.098 C 255.070 226.006,255.471 225.822,255.471 225.688 C 255.471 225.555,255.642 225.445,255.852 225.445 C 256.062 225.445,256.234 225.345,256.234 225.223 C 256.234 225.101,256.683 224.930,257.231 224.842 C 257.779 224.754,258.265 224.570,258.312 224.431 C 258.359 224.293,258.969 224.104,259.669 224.010 C 260.369 223.917,261.009 223.737,261.093 223.611 C 261.176 223.484,261.891 223.314,262.683 223.233 C 263.474 223.151,264.122 222.986,264.122 222.865 C 264.122 222.745,264.350 222.646,264.628 222.646 C 267.286 222.646,266.586 216.918,263.862 216.373 C 263.445 216.290,263.104 216.131,263.104 216.021 C 263.104 215.911,262.646 215.743,262.087 215.649 C 261.527 215.554,261.069 215.388,261.069 215.280 C 261.069 215.172,260.468 215.012,259.734 214.926 C 259.000 214.839,258.361 214.651,258.314 214.508 C 258.266 214.366,257.951 214.249,257.612 214.249 C 257.274 214.249,256.997 214.149,256.997 214.027 C 256.997 213.905,256.539 213.732,255.980 213.643 C 255.016 213.489,254.527 212.977,255.344 212.977 C 255.553 212.977,255.725 213.074,255.725 213.192 C 255.725 213.311,257.128 213.483,258.842 213.575 C 260.557 213.667,261.997 213.857,262.044 213.996 C 262.091 214.135,262.520 214.249,262.998 214.249 C 263.476 214.249,263.868 214.349,263.868 214.471 C 263.868 214.593,264.669 214.771,265.649 214.868 C 266.628 214.965,267.430 215.138,267.430 215.253 C 267.430 215.369,268.060 215.542,268.830 215.638 C 269.599 215.734,270.229 215.906,270.229 216.020 C 270.229 216.133,270.859 216.305,271.628 216.401 C 272.398 216.497,273.028 216.682,273.028 216.812 C 273.028 216.942,273.372 217.048,273.791 217.048 C 274.211 217.048,274.555 217.152,274.555 217.279 C 274.555 217.406,275.127 217.588,275.827 217.684 C 276.527 217.781,277.099 217.956,277.099 218.074 C 277.099 218.193,277.615 218.367,278.244 218.461 C 278.874 218.556,279.389 218.721,279.389 218.830 C 279.389 218.938,279.905 219.103,280.534 219.198 C 281.164 219.292,281.679 219.477,281.679 219.608 C 281.679 219.740,281.899 219.847,282.167 219.847 C 282.435 219.847,282.703 219.990,282.762 220.165 C 282.906 220.594,288.861 220.568,289.004 220.138 C 289.057 219.978,289.540 219.847,290.076 219.847 C 290.630 219.847,291.098 219.710,291.158 219.529 C 291.240 219.284,293.085 219.211,299.237 219.211 C 305.389 219.211,307.234 219.284,307.316 219.529 C 307.441 219.906,315.013 219.997,315.013 219.622 C 315.013 219.498,315.528 219.319,316.158 219.224 C 316.788 219.130,317.303 218.958,317.303 218.842 C 317.303 218.726,317.704 218.557,318.193 218.465 C 318.683 218.373,319.084 218.188,319.084 218.055 C 319.084 217.921,319.259 217.812,319.474 217.812 C 319.688 217.812,319.929 217.640,320.010 217.430 C 320.090 217.220,320.361 217.048,320.611 217.048 C 320.861 217.048,321.131 216.877,321.212 216.667 C 321.292 216.457,321.533 216.285,321.748 216.285 C 321.962 216.285,322.137 216.178,322.137 216.048 C 322.137 215.917,322.390 215.730,322.698 215.632 C 323.006 215.535,323.415 215.298,323.607 215.106 C 323.798 214.915,324.119 214.758,324.318 214.758 C 324.518 214.758,324.682 214.660,324.682 214.541 C 324.682 214.183,325.904 212.977,326.267 212.977 C 326.453 212.977,326.801 212.748,327.040 212.468 C 327.280 212.188,327.641 211.959,327.843 211.959 C 328.045 211.959,328.281 211.736,328.367 211.463 C 328.454 211.191,328.771 210.889,329.072 210.794 C 329.374 210.698,329.777 210.463,329.968 210.272 C 330.160 210.080,330.480 209.924,330.680 209.924 C 330.880 209.924,331.043 209.815,331.043 209.681 C 331.043 209.548,331.473 209.239,331.997 208.995 C 332.522 208.751,333.043 208.402,333.155 208.220 C 333.267 208.037,333.525 207.888,333.728 207.888 C 333.931 207.888,334.097 207.774,334.097 207.634 C 334.097 207.494,334.329 207.379,334.614 207.379 C 334.898 207.379,335.194 207.214,335.271 207.013 C 335.348 206.812,335.745 206.574,336.154 206.484 C 336.562 206.394,336.896 206.215,336.896 206.087 C 336.896 205.958,337.125 205.852,337.405 205.852 C 337.684 205.852,337.913 205.738,337.913 205.598 C 337.913 205.458,338.089 205.344,338.303 205.344 C 338.517 205.344,338.758 205.175,338.837 204.969 C 338.916 204.763,339.370 204.521,339.846 204.432 C 340.323 204.342,340.712 204.176,340.712 204.063 C 340.712 203.950,341.056 203.782,341.476 203.690 C 341.896 203.597,342.239 203.416,342.239 203.288 C 342.239 203.159,342.411 203.053,342.621 203.053 C 342.831 203.053,343.003 202.948,343.003 202.819 C 343.003 202.690,343.346 202.510,343.766 202.417 C 344.186 202.325,344.529 202.149,344.529 202.027 C 344.529 201.904,344.922 201.731,345.402 201.640 C 345.882 201.550,346.337 201.316,346.412 201.120 C 346.487 200.924,346.724 200.763,346.939 200.763 C 347.153 200.763,347.328 200.649,347.328 200.509 C 347.328 200.369,347.500 200.254,347.710 200.254 C 347.920 200.254,348.092 200.153,348.092 200.028 C 348.092 199.904,348.492 199.727,348.982 199.635 C 349.472 199.543,349.873 199.359,349.873 199.225 C 349.873 199.092,350.048 198.982,350.262 198.982 C 350.477 198.982,350.718 198.810,350.799 198.601 C 350.879 198.391,351.167 198.219,351.438 198.219 C 351.710 198.219,352.218 197.933,352.568 197.583 C 352.918 197.233,353.295 196.947,353.407 196.947 C 355.804 196.947,355.359 191.984,352.893 191.214 C 352.561 191.110,352.220 190.917,352.134 190.784 C 352.049 190.651,351.047 190.478,349.908 190.400 C 348.212 190.284,346.863 189.822,348.219 189.822 C 348.429 189.822,348.601 189.709,348.601 189.570 C 348.601 189.432,349.059 189.246,349.618 189.156 C 350.178 189.067,350.636 188.907,350.636 188.801 C 350.636 188.695,351.295 188.526,352.099 188.426 C 352.904 188.326,353.623 188.147,353.696 188.029 C 353.770 187.911,355.172 187.734,356.813 187.635 C 358.454 187.537,359.796 187.359,359.796 187.240 C 359.796 187.121,360.875 187.023,362.193 187.023 C 363.510 187.023,364.627 186.919,364.673 186.792 C 364.720 186.665,368.050 186.477,372.074 186.375 C 376.097 186.273,379.389 186.109,379.389 186.010 C 379.389 185.911,381.990 185.750,385.170 185.652 C 388.349 185.555,391.011 185.381,391.086 185.265 C 391.160 185.150,391.880 184.975,392.684 184.876 C 393.489 184.777,394.148 184.590,394.148 184.460 C 394.148 184.330,394.319 184.224,394.529 184.224 C 394.739 184.224,394.911 184.115,394.911 183.981 C 394.911 183.847,395.304 183.664,395.784 183.574 C 396.264 183.484,396.718 183.250,396.794 183.054 C 396.869 182.858,397.058 182.697,397.213 182.697 C 398.367 182.697,400.000 179.855,400.000 177.845 C 400.000 175.648,400.905 175.827,389.810 175.827 C 384.375 175.827,379.868 175.730,379.795 175.612 C 379.722 175.494,375.120 175.332,369.567 175.253 C 363.266 175.163,359.413 175.013,359.315 174.854 C 359.229 174.714,357.784 174.516,356.106 174.414 C 354.427 174.313,352.977 174.111,352.884 173.966 C 352.771 173.792,347.862 173.663,338.389 173.585 L 324.063 173.468 323.258 172.639 C 322.815 172.183,322.210 171.732,321.914 171.638 C 321.187 171.408,321.232 171.038,322.010 170.842 C 322.360 170.755,322.646 170.581,322.646 170.456 C 322.646 170.331,322.818 170.229,323.028 170.229 C 323.238 170.229,323.410 170.116,323.410 169.978 C 323.410 169.839,323.868 169.653,324.427 169.563 C 324.987 169.474,325.445 169.302,325.445 169.182 C 325.445 169.061,325.903 168.890,326.463 168.800 C 327.023 168.710,327.481 168.546,327.481 168.436 C 327.481 168.325,327.849 168.153,328.300 168.054 C 329.156 167.866,330.050 167.442,330.299 167.105 C 330.380 166.997,331.038 166.837,331.762 166.752 C 332.486 166.666,333.079 166.497,333.079 166.377 C 333.079 166.256,334.224 166.158,335.623 166.158 C 337.023 166.158,338.168 166.260,338.168 166.386 C 338.168 166.511,339.084 166.695,340.204 166.794 C 341.323 166.893,342.239 167.077,342.239 167.202 C 342.239 167.327,342.573 167.430,342.981 167.430 C 343.390 167.430,343.771 167.573,343.829 167.748 C 343.909 167.988,345.154 168.066,348.896 168.066 L 353.857 168.066 354.791 167.076 C 355.305 166.532,355.725 165.931,355.725 165.740 C 355.725 165.550,355.831 165.394,355.959 165.394 C 356.088 165.394,356.269 165.051,356.361 164.631 C 356.454 164.211,356.634 163.868,356.763 163.868 C 356.892 163.868,356.997 163.581,356.997 163.232 C 356.997 162.882,357.103 162.595,357.232 162.595 C 357.361 162.595,357.541 162.252,357.634 161.832 C 357.726 161.412,357.904 161.069,358.031 161.069 C 358.157 161.069,358.332 160.782,358.420 160.433 C 358.507 160.083,358.669 159.796,358.779 159.796 C 358.888 159.796,359.050 159.510,359.138 159.160 C 359.225 158.810,359.410 158.524,359.547 158.524 C 359.684 158.524,359.796 158.352,359.796 158.142 C 359.796 157.933,359.915 157.761,360.059 157.761 C 360.203 157.761,360.398 157.560,360.491 157.316 C 360.657 156.881,360.866 156.585,361.514 155.862 C 361.689 155.667,361.832 155.400,361.832 155.270 C 361.832 155.140,362.118 154.818,362.468 154.555 C 362.818 154.293,363.104 153.942,363.104 153.776 C 363.104 153.333,365.913 150.636,366.374 150.636 C 366.505 150.636,366.678 150.464,366.759 150.254 C 366.839 150.045,367.195 149.873,367.549 149.873 C 367.904 149.873,368.193 149.771,368.193 149.647 C 368.193 149.523,368.709 149.344,369.338 149.250 C 369.968 149.156,370.483 148.981,370.483 148.863 C 370.483 148.745,371.056 148.570,371.756 148.473 C 372.455 148.377,373.028 148.195,373.028 148.068 C 373.028 147.941,373.314 147.837,373.664 147.837 C 374.014 147.837,374.300 147.735,374.300 147.610 C 374.300 147.486,374.589 147.311,374.943 147.222 C 376.195 146.908,377.439 144.275,376.336 144.275 C 376.196 144.275,376.081 144.120,376.081 143.930 C 376.081 143.586,374.968 142.239,374.683 142.239 C 374.539 142.239,374.184 141.971,373.419 141.285 C 373.224 141.110,372.938 140.967,372.784 140.967 C 372.629 140.967,372.438 140.798,372.359 140.592 C 372.280 140.386,371.826 140.144,371.349 140.055 C 370.873 139.966,370.483 139.791,370.483 139.666 C 370.483 139.542,370.312 139.440,370.102 139.440 C 369.892 139.440,369.720 139.338,369.720 139.213 C 369.720 139.089,369.406 138.908,369.023 138.811 C 368.639 138.715,368.261 138.532,368.182 138.403 C 368.102 138.275,367.328 138.096,366.462 138.006 C 365.595 137.915,364.885 137.755,364.885 137.650 C 364.885 137.545,363.855 137.377,362.595 137.277 C 361.336 137.178,360.305 136.994,360.305 136.869 C 360.305 136.744,359.847 136.641,359.288 136.641 C 358.728 136.641,358.270 136.543,358.270 136.423 C 358.270 136.303,357.560 136.131,356.694 136.040 C 355.827 135.949,355.054 135.775,354.976 135.653 C 354.898 135.531,354.348 135.350,353.753 135.251 C 353.158 135.151,352.672 134.971,352.672 134.849 C 352.672 134.728,352.271 134.553,351.781 134.462 C 351.291 134.370,350.891 134.193,350.891 134.068 C 350.891 133.944,350.719 133.842,350.509 133.842 C 350.299 133.842,350.127 133.737,350.127 133.608 C 350.127 133.479,349.784 133.298,349.364 133.206 C 348.944 133.114,348.601 132.935,348.601 132.809 C 348.601 132.683,348.314 132.508,347.964 132.420 C 347.615 132.332,347.328 132.158,347.328 132.033 C 347.328 131.909,347.153 131.807,346.939 131.807 C 346.724 131.807,346.483 131.635,346.402 131.425 C 346.322 131.215,346.102 131.043,345.914 131.043 C 345.520 131.043,343.003 128.602,343.003 128.220 C 343.003 128.080,342.716 127.700,342.366 127.376 C 342.017 127.052,341.730 126.682,341.730 126.554 C 341.730 126.426,341.530 126.133,341.285 125.901 C 341.040 125.670,340.702 125.330,340.534 125.145 C 339.898 124.447,339.427 124.158,338.682 124.009 C 338.259 123.924,337.913 123.755,337.913 123.632 C 337.913 123.510,337.650 123.410,337.328 123.410 C 337.006 123.410,336.600 123.267,336.425 123.092 C 336.182 122.849,333.921 122.773,326.895 122.771 L 317.684 122.768 316.730 121.808 C 315.549 120.620,315.549 120.611,316.794 120.611 C 317.354 120.611,317.812 120.514,317.812 120.395 C 317.812 120.277,319.208 120.105,320.914 120.013 C 322.620 119.921,324.080 119.744,324.158 119.619 C 324.236 119.494,325.188 119.309,326.272 119.208 C 327.357 119.107,328.244 118.936,328.244 118.829 C 328.244 118.722,328.874 118.555,329.644 118.459 C 330.413 118.363,331.043 118.178,331.043 118.048 C 331.043 117.918,331.330 117.812,331.679 117.812 C 332.029 117.812,332.316 117.710,332.316 117.585 C 332.316 117.460,332.599 117.287,332.947 117.200 C 333.294 117.112,333.952 116.675,334.410 116.226 L 335.242 115.412 335.242 109.954 C 335.242 105.814,335.319 104.471,335.560 104.390 C 335.735 104.331,335.878 104.060,335.878 103.788 C 335.878 103.515,336.039 103.230,336.237 103.154 C 336.434 103.079,336.671 102.717,336.763 102.350 C 336.854 101.984,337.143 101.499,337.405 101.272 C 337.666 101.046,337.957 100.552,338.051 100.176 C 338.146 99.799,338.317 99.491,338.433 99.491 C 338.548 99.491,338.723 99.239,338.820 98.930 C 338.918 98.622,339.155 98.213,339.347 98.022 C 339.538 97.830,339.695 97.518,339.695 97.327 C 339.695 97.137,339.924 96.908,340.204 96.819 C 340.483 96.731,340.712 96.502,340.712 96.311 C 340.712 96.121,340.869 95.808,341.061 95.617 C 341.252 95.426,341.489 95.017,341.587 94.708 C 341.684 94.400,341.871 94.148,342.002 94.148 C 342.132 94.148,342.239 93.992,342.239 93.802 C 342.239 93.611,342.525 93.241,342.875 92.978 C 343.225 92.715,343.511 92.354,343.511 92.176 C 343.511 91.998,343.740 91.656,344.020 91.417 C 344.300 91.177,344.529 90.835,344.529 90.656 C 344.529 90.477,344.642 90.331,344.779 90.331 C 344.916 90.331,345.095 90.067,345.176 89.744 C 345.257 89.421,345.603 88.947,345.944 88.690 C 346.286 88.434,346.565 88.117,346.565 87.987 C 346.565 87.857,346.708 87.590,346.883 87.395 C 347.621 86.572,347.837 86.268,347.837 86.054 C 347.837 85.929,348.181 85.563,348.601 85.242 C 349.020 84.920,349.364 84.497,349.364 84.301 C 349.364 84.105,349.650 83.680,350.000 83.356 C 350.350 83.031,350.636 82.677,350.636 82.568 C 350.636 82.460,350.980 82.042,351.399 81.641 C 351.819 81.240,352.163 80.753,352.163 80.559 C 352.163 80.366,352.346 80.137,352.570 80.051 C 352.931 79.913,352.955 79.406,352.791 75.557 C 352.618 71.511,352.638 71.187,353.084 70.736 C 353.347 70.471,353.700 70.105,353.868 69.923 C 354.342 69.412,354.923 68.957,355.103 68.957 C 355.193 68.957,356.285 67.934,357.531 66.683 C 360.725 63.477,360.680 62.160,357.367 61.894 C 356.464 61.822,355.725 61.664,355.725 61.543 C 355.725 61.422,354.008 61.323,351.908 61.323 C 349.809 61.323,348.092 61.424,348.092 61.548 C 348.092 61.672,347.464 61.852,346.696 61.948 C 345.929 62.044,345.235 62.229,345.154 62.359 C 345.074 62.489,344.729 62.595,344.387 62.595 C 344.045 62.595,343.766 62.697,343.766 62.821 C 343.766 62.945,343.251 63.124,342.621 63.218 C 341.991 63.313,341.476 63.496,341.476 63.626 C 341.476 63.756,341.018 63.935,340.458 64.024 C 339.898 64.114,339.440 64.287,339.440 64.409 C 339.440 64.531,339.268 64.631,339.059 64.631 C 338.849 64.631,338.677 64.731,338.677 64.853 C 338.677 64.975,338.219 65.148,337.659 65.238 C 337.099 65.327,336.641 65.512,336.641 65.649 C 336.641 65.785,336.183 65.971,335.623 66.060 C 335.064 66.150,334.606 66.321,334.606 66.442 C 334.606 66.562,334.148 66.734,333.588 66.823 C 333.028 66.913,332.570 67.086,332.570 67.208 C 332.570 67.330,332.398 67.430,332.188 67.430 C 331.978 67.430,331.807 67.543,331.807 67.681 C 331.807 67.820,331.349 68.006,330.789 68.096 C 330.229 68.185,329.771 68.344,329.771 68.448 C 329.771 68.552,329.313 68.710,328.753 68.800 C 328.193 68.890,327.735 69.066,327.735 69.192 C 327.735 69.318,327.277 69.498,326.718 69.593 C 326.158 69.687,325.700 69.869,325.700 69.997 C 325.700 70.125,325.471 70.229,325.191 70.229 C 324.911 70.229,324.682 70.333,324.682 70.460 C 324.682 70.586,324.109 70.769,323.410 70.865 C 322.710 70.961,322.137 71.134,322.137 71.248 C 322.137 71.363,321.679 71.534,321.120 71.628 C 320.560 71.723,320.102 71.898,320.102 72.017 C 320.102 72.136,319.587 72.311,318.957 72.405 C 318.327 72.500,317.812 72.678,317.812 72.802 C 317.812 72.926,317.525 73.028,317.176 73.028 C 316.826 73.028,316.539 73.135,316.539 73.267 C 316.539 73.398,316.024 73.583,315.394 73.677 C 314.765 73.772,314.249 73.940,314.249 74.051 C 314.249 74.162,313.677 74.331,312.977 74.427 C 312.277 74.524,311.705 74.699,311.705 74.817 C 311.705 74.936,311.190 75.110,310.560 75.204 C 309.930 75.299,309.415 75.477,309.415 75.601 C 309.415 75.725,309.128 75.827,308.779 75.827 C 308.429 75.827,308.142 75.934,308.142 76.066 C 308.142 76.197,307.627 76.382,306.997 76.476 C 306.368 76.571,305.852 76.735,305.852 76.841 C 305.852 76.947,305.394 77.107,304.835 77.197 C 304.275 77.286,303.817 77.458,303.817 77.579 C 303.817 77.699,303.359 77.871,302.799 77.960 C 302.239 78.050,301.781 78.236,301.781 78.375 C 301.781 78.513,301.495 78.626,301.145 78.626 C 300.795 78.626,300.509 78.731,300.509 78.860 C 300.509 78.989,300.175 79.168,299.767 79.257 C 299.359 79.347,298.961 79.585,298.884 79.787 C 298.807 79.988,298.511 80.153,298.227 80.153 C 297.943 80.153,297.710 80.267,297.710 80.407 C 297.710 80.547,297.535 80.662,297.320 80.662 C 297.106 80.662,296.865 80.833,296.784 81.043 C 296.704 81.253,296.506 81.425,296.344 81.425 C 296.183 81.425,295.766 81.688,295.417 82.011 C 295.069 82.333,294.583 82.673,294.338 82.766 C 294.094 82.859,293.893 83.054,293.893 83.198 C 293.893 83.342,293.661 83.461,293.376 83.461 C 293.092 83.461,292.793 83.632,292.713 83.842 C 292.632 84.052,292.407 84.224,292.212 84.224 C 292.017 84.224,291.858 84.336,291.858 84.474 C 291.858 84.611,291.571 84.795,291.221 84.883 C 290.872 84.971,290.585 85.132,290.585 85.242 C 290.585 85.351,290.272 85.520,289.888 85.616 C 289.505 85.712,289.123 85.900,289.040 86.034 C 288.958 86.168,288.441 86.332,287.893 86.398 C 287.344 86.464,287.065 86.442,287.273 86.348 C 287.480 86.254,287.803 86.024,287.991 85.837 C 288.178 85.650,288.483 85.496,288.668 85.496 C 288.853 85.496,289.070 85.324,289.151 85.115 C 289.231 84.905,289.447 84.733,289.630 84.733 C 289.814 84.733,290.126 84.508,290.324 84.233 C 290.522 83.959,291.005 83.663,291.398 83.577 C 291.791 83.491,292.112 83.317,292.112 83.191 C 292.112 83.065,292.398 82.890,292.748 82.802 C 293.098 82.714,293.384 82.552,293.384 82.443 C 293.384 82.333,293.692 82.166,294.069 82.072 C 294.445 81.977,294.932 81.695,295.150 81.444 C 295.369 81.194,295.828 80.900,296.171 80.792 C 296.515 80.683,296.952 80.438,297.144 80.246 C 297.335 80.055,297.643 79.898,297.828 79.898 C 298.013 79.898,298.230 79.726,298.311 79.517 C 298.391 79.307,298.690 79.135,298.974 79.135 C 299.258 79.135,299.491 79.037,299.491 78.918 C 299.491 78.592,300.698 77.354,301.015 77.354 C 301.167 77.354,301.792 76.838,302.404 76.209 C 303.016 75.579,303.623 75.064,303.752 75.064 C 303.881 75.064,304.320 74.723,304.729 74.307 C 305.137 73.891,305.566 73.548,305.683 73.544 C 305.799 73.540,306.272 73.148,306.734 72.673 C 307.195 72.198,307.815 71.732,308.112 71.638 C 308.409 71.544,308.651 71.374,308.651 71.259 C 308.651 71.145,308.852 70.984,309.097 70.902 C 309.730 70.690,310.525 70.156,310.763 69.784 C 310.875 69.609,311.133 69.466,311.336 69.466 C 311.539 69.466,311.705 69.353,311.705 69.216 C 311.705 69.079,311.991 68.895,312.341 68.807 C 312.691 68.719,312.977 68.554,312.977 68.440 C 312.977 68.327,313.321 68.158,313.740 68.066 C 314.160 67.974,314.504 67.793,314.504 67.664 C 314.504 67.535,314.733 67.430,315.013 67.430 C 315.293 67.430,315.522 67.325,315.522 67.196 C 315.522 67.067,315.865 66.886,316.285 66.794 C 316.705 66.702,317.048 66.530,317.048 66.412 C 317.048 66.295,317.392 66.123,317.812 66.031 C 318.232 65.938,318.575 65.771,318.575 65.658 C 318.575 65.546,318.775 65.386,319.020 65.304 C 320.233 64.897,322.544 62.710,322.788 61.738 C 322.880 61.370,323.058 61.069,323.183 61.069 C 323.308 61.069,323.410 60.926,323.410 60.751 C 323.410 60.502,325.293 60.433,331.976 60.433 C 338.604 60.433,340.567 60.361,340.649 60.115 C 340.707 59.940,341.089 59.796,341.497 59.796 C 341.905 59.796,342.239 59.697,342.239 59.575 C 342.239 59.452,342.697 59.279,343.257 59.190 C 343.817 59.100,344.275 58.923,344.275 58.796 C 344.275 58.669,344.618 58.489,345.038 58.397 C 345.458 58.305,345.802 58.126,345.802 58.000 C 345.802 57.874,346.084 57.700,346.429 57.613 C 346.773 57.527,347.123 57.244,347.205 56.985 C 347.287 56.726,347.601 56.436,347.902 56.341 C 348.203 56.245,348.606 56.010,348.798 55.819 C 348.989 55.627,349.309 55.471,349.509 55.471 C 349.709 55.471,349.873 55.356,349.873 55.216 C 349.873 55.076,350.048 54.962,350.262 54.962 C 350.477 54.962,350.718 54.790,350.799 54.580 C 350.879 54.370,351.162 54.198,351.427 54.198 C 351.692 54.198,351.908 54.093,351.908 53.964 C 351.908 53.835,352.242 53.657,352.650 53.567 C 353.059 53.477,353.456 53.239,353.533 53.038 C 353.610 52.837,353.894 52.672,354.163 52.672 C 354.433 52.672,354.719 52.500,354.799 52.290 C 354.880 52.080,355.094 51.908,355.275 51.908 C 355.456 51.908,355.819 51.622,356.082 51.272 C 356.345 50.922,356.716 50.636,356.906 50.636 C 357.097 50.636,357.709 50.149,358.267 49.555 C 358.826 48.960,359.399 48.359,359.542 48.219 C 361.360 46.438,362.091 45.802,362.321 45.802 C 362.472 45.802,362.595 45.689,362.595 45.552 C 362.595 45.415,362.882 45.230,363.232 45.143 C 363.581 45.055,363.868 44.893,363.868 44.784 C 363.868 44.674,364.176 44.507,364.554 44.412 C 365.308 44.223,366.921 42.658,366.921 42.115 C 366.921 41.927,367.043 41.732,367.192 41.682 C 367.341 41.633,367.528 41.108,367.607 40.516 C 367.687 39.924,367.851 39.440,367.972 39.440 C 368.094 39.440,368.193 38.696,368.193 37.786 C 368.193 36.877,368.291 36.132,368.411 36.132 C 368.530 36.132,368.709 34.675,368.808 32.893 C 368.907 31.112,369.078 29.595,369.188 29.522 C 369.297 29.449,369.463 28.823,369.556 28.131 C 369.648 27.439,369.823 26.809,369.945 26.731 C 370.066 26.654,370.246 26.218,370.344 25.763 C 370.443 25.309,370.629 24.936,370.758 24.936 C 370.887 24.936,370.992 24.816,370.992 24.670 C 370.992 24.523,371.263 24.151,371.593 23.843 C 371.924 23.535,372.271 23.035,372.366 22.733 C 372.461 22.431,372.706 22.120,372.910 22.042 C 373.115 21.963,373.282 21.724,373.282 21.509 C 373.282 21.295,373.397 21.120,373.537 21.120 C 373.677 21.120,373.791 20.891,373.791 20.611 C 373.791 20.331,373.906 20.102,374.046 20.102 C 374.186 20.102,374.300 19.484,374.300 18.730 C 374.300 17.157,374.167 17.048,372.244 17.048 C 371.556 17.048,370.992 16.934,370.992 16.794 C 370.992 16.640,369.714 16.523,367.748 16.499 C 365.964 16.476,364.876 16.412,365.331 16.355 C 365.786 16.299,366.158 16.155,366.158 16.035 C 366.158 15.915,366.902 15.737,367.812 15.639 C 368.721 15.542,369.466 15.361,369.466 15.238 C 369.466 15.114,369.809 15.013,370.229 15.013 C 370.649 15.013,370.992 14.909,370.992 14.783 C 370.992 14.657,371.708 14.472,372.583 14.371 C 373.457 14.270,374.239 14.084,374.319 13.958 C 374.400 13.831,375.058 13.657,375.783 13.571 C 376.507 13.485,377.099 13.322,377.099 13.208 C 377.099 13.094,377.500 12.925,377.990 12.833 C 378.480 12.741,378.880 12.564,378.880 12.440 C 378.880 12.316,379.109 12.214,379.389 12.214 C 379.669 12.214,379.898 12.108,379.898 11.980 C 379.898 11.851,380.242 11.670,380.662 11.578 C 381.081 11.485,381.425 11.314,381.425 11.196 C 381.425 11.078,381.768 10.906,382.188 10.814 C 382.608 10.722,382.952 10.550,382.952 10.433 C 382.952 10.315,383.295 10.143,383.715 10.051 C 384.135 9.959,384.478 9.778,384.478 9.649 C 384.478 9.520,384.707 9.415,384.987 9.415 C 385.267 9.415,385.496 9.309,385.496 9.181 C 385.496 9.052,385.840 8.871,386.260 8.779 C 386.679 8.686,387.023 8.515,387.023 8.397 C 387.023 8.279,387.366 8.107,387.786 8.015 C 388.206 7.923,388.550 7.757,388.550 7.646 C 388.550 7.535,389.008 7.371,389.567 7.281 C 390.127 7.192,390.585 7.006,390.585 6.867 C 390.585 6.729,390.757 6.616,390.967 6.616 C 391.177 6.616,391.349 6.510,391.349 6.382 C 391.349 6.253,391.692 6.072,392.112 5.980 C 392.532 5.887,392.875 5.714,392.875 5.595 C 392.875 5.475,393.098 5.307,393.371 5.220 C 394.595 4.832,394.314 2.680,393.006 2.435 C 392.535 2.346,392.111 2.161,392.065 2.023 C 392.019 1.885,391.381 1.701,390.647 1.614 C 389.913 1.527,389.313 1.357,389.313 1.237 C 389.313 1.116,388.865 1.018,388.316 1.018 C 387.768 1.018,387.282 0.916,387.235 0.791 C 386.987 0.129,377.262 -0.206,373.346 0.313 M118.875 26.985 C 118.570 27.268,118.321 27.420,118.321 27.321 C 118.321 27.074,119.186 26.252,119.320 26.371 C 119.380 26.425,119.179 26.701,118.875 26.985 M167.653 36.336 C 167.746 36.486,168.420 36.688,169.152 36.785 C 172.034 37.167,170.202 37.405,164.377 37.405 C 158.666 37.405,156.950 37.193,158.779 36.715 C 159.059 36.642,159.288 36.489,159.288 36.375 C 159.288 35.840,167.324 35.803,167.653 36.336 M165.123 54.280 C 165.482 54.436,166.120 54.810,166.539 55.112 C 167.403 55.734,168.372 56.176,170.695 57.007 C 171.580 57.324,173.006 58.053,173.863 58.626 C 174.719 59.200,175.879 59.930,176.440 60.248 C 177.000 60.567,177.521 60.914,177.597 61.018 C 177.673 61.123,178.213 61.581,178.797 62.035 C 180.749 63.554,182.912 66.932,184.113 70.334 C 185.084 73.085,185.166 79.571,184.254 81.364 C 183.433 82.977,183.334 83.438,183.341 85.597 C 183.345 86.871,183.426 88.257,183.521 88.677 C 183.946 90.547,184.265 92.043,184.391 92.748 C 184.543 93.604,184.552 99.154,184.402 99.746 C 184.349 99.955,184.215 100.585,184.103 101.145 C 183.646 103.441,181.163 106.361,179.667 106.361 C 179.342 106.361,176.547 108.037,175.935 108.599 C 175.666 108.846,175.033 109.360,174.529 109.742 C 173.619 110.430,173.612 110.449,173.423 112.914 C 173.184 116.028,173.165 116.192,172.910 117.430 C 172.658 118.651,171.528 120.376,170.499 121.108 L 169.753 121.640 169.341 121.062 C 169.115 120.744,168.595 119.940,168.186 119.275 C 167.253 117.761,166.412 117.597,166.412 118.929 C 166.412 120.761,165.962 120.956,161.288 121.156 C 157.189 121.332,157.108 121.325,156.062 120.718 C 154.681 119.918,154.135 119.941,152.632 120.865 C 151.087 121.816,151.095 121.816,150.024 120.744 C 148.887 119.608,147.601 116.788,147.584 115.394 C 147.556 113.091,145.128 110.534,141.249 108.724 C 136.447 106.483,135.524 105.964,134.194 104.756 C 131.164 102.003,129.779 94.164,131.803 91.221 C 132.245 90.577,132.864 87.939,132.745 87.204 C 131.915 82.105,132.117 80.572,133.840 78.880 C 133.911 78.810,134.366 78.181,134.850 77.481 C 135.880 75.993,137.000 74.809,137.376 74.809 C 138.368 74.809,138.184 73.388,137.087 72.568 C 135.999 71.756,137.200 70.239,139.444 69.591 C 142.840 68.610,143.428 68.357,144.354 67.469 C 145.940 65.950,146.459 64.377,145.375 64.377 C 145.017 64.377,142.372 65.658,137.944 67.979 C 135.276 69.377,133.541 71.593,132.937 74.374 C 132.580 76.020,130.538 78.114,129.631 77.766 C 128.931 77.497,129.397 73.109,130.417 70.356 C 132.016 66.043,134.175 63.220,137.659 60.886 C 139.629 59.566,141.860 58.473,144.529 57.519 C 145.019 57.344,145.649 57.106,145.929 56.990 C 146.209 56.874,147.296 56.533,148.346 56.233 C 149.396 55.933,150.541 55.591,150.891 55.473 C 151.595 55.236,154.577 54.607,156.743 54.239 C 158.689 53.909,164.328 53.936,165.123 54.280 M290.585 71.247 C 290.585 71.387,290.957 71.503,291.412 71.505 C 293.169 71.512,294.030 72.093,292.757 72.412 C 292.412 72.499,292.062 72.783,291.980 73.044 C 291.887 73.335,291.488 73.583,290.953 73.684 C 290.471 73.774,290.076 73.950,290.076 74.074 C 290.076 74.510,286.584 74.342,286.414 73.898 C 285.931 72.639,286.780 71.729,288.602 71.554 C 289.273 71.489,289.822 71.337,289.822 71.214 C 289.822 71.092,289.994 70.992,290.204 70.992 C 290.413 70.992,290.585 71.107,290.585 71.247 M143.384 80.998 C 139.113 81.716,137.869 83.124,137.721 87.405 C 137.527 92.998,139.926 94.844,147.710 95.092 C 152.734 95.252,153.695 94.625,154.575 90.612 C 156.100 83.654,151.434 79.646,143.384 80.998 M275.727 82.072 C 275.502 82.237,275.318 82.485,275.318 82.624 C 275.318 83.039,274.101 84.224,273.676 84.224 C 273.110 84.224,273.191 83.778,273.791 83.588 C 274.071 83.499,274.300 83.280,274.300 83.100 C 274.300 82.543,275.940 80.929,276.045 81.382 C 276.096 81.597,275.953 81.908,275.727 82.072 M168.193 83.625 C 164.687 84.835,162.766 87.318,162.899 90.470 C 163.042 93.870,163.918 94.786,168.066 95.873 C 168.626 96.020,169.793 96.344,170.659 96.593 C 177.888 98.673,182.870 90.008,177.276 85.084 C 175.240 83.292,171.092 82.626,168.193 83.625 M156.754 96.993 C 156.323 97.456,155.151 99.706,154.193 101.908 C 153.626 103.211,152.672 107.370,152.672 108.536 C 152.672 109.929,153.183 109.893,156.370 108.271 L 159.260 106.800 160.483 107.825 C 161.155 108.388,161.923 109.091,162.190 109.386 C 163.904 111.287,166.262 105.970,164.745 103.625 C 163.202 101.239,158.537 96.438,157.762 96.438 C 157.492 96.438,157.039 96.688,156.754 96.993 M177.608 115.590 L 177.608 121.255 175.492 125.450 C 172.379 131.623,171.962 132.220,170.229 132.995 C 167.915 134.031,166.685 134.185,160.560 134.205 L 154.580 134.224 152.545 133.482 C 148.954 132.172,148.552 131.801,146.643 128.039 C 145.586 125.956,144.564 124.167,144.288 123.919 C 142.315 122.143,141.415 119.958,140.881 115.649 C 140.754 114.618,140.386 113.097,140.205 112.850 C 139.285 111.592,139.942 110.545,141.155 111.340 C 142.703 112.354,143.966 114.294,146.540 119.611 C 148.683 124.039,153.172 126.675,155.289 124.750 C 156.440 123.704,157.152 123.967,159.326 126.242 C 160.763 127.746,160.789 127.748,161.863 126.406 C 163.748 124.050,164.641 123.748,166.802 124.732 C 168.332 125.429,173.246 121.849,174.650 119.015 C 175.265 117.773,175.472 116.881,176.094 112.777 C 176.328 111.230,176.919 109.924,177.383 109.924 C 177.507 109.924,177.608 112.473,177.608 115.590 M214.840 114.059 C 215.096 114.246,215.382 115.004,215.536 115.903 C 215.680 116.743,215.912 118.117,216.053 118.957 C 216.324 120.581,216.659 121.766,217.215 123.066 C 217.403 123.507,217.557 123.971,217.557 124.096 C 217.557 124.497,219.418 126.090,220.921 126.976 C 223.077 128.246,223.527 129.559,222.737 132.276 C 221.550 136.364,219.419 137.118,212.850 135.777 C 208.147 134.817,206.292 135.059,201.145 137.303 C 200.725 137.486,199.809 137.859,199.109 138.133 C 196.884 139.002,190.585 141.997,187.277 143.758 C 186.508 144.168,184.733 145.031,183.333 145.677 C 178.015 148.129,174.144 150.380,171.538 152.538 C 168.997 154.643,168.495 154.907,164.249 156.371 C 161.861 157.195,161.446 157.381,157.252 159.518 C 150.150 163.135,147.941 164.235,147.045 164.601 C 146.052 165.007,145.144 165.397,143.462 166.139 C 142.805 166.429,142.207 166.667,142.133 166.667 C 142.060 166.667,141.395 166.935,140.656 167.263 C 139.918 167.591,138.912 168.009,138.422 168.192 C 137.933 168.375,137.188 168.675,136.768 168.860 C 136.349 169.045,133.919 169.998,131.369 170.977 C 125.060 173.401,122.047 175.294,119.950 178.151 C 118.961 179.498,118.951 179.543,118.418 185.198 C 118.311 186.332,118.083 187.240,117.836 187.515 C 116.807 188.662,112.604 189.353,110.305 188.754 L 109.033 188.422 108.906 183.598 L 108.779 178.774 107.252 177.691 C 106.412 177.095,104.681 175.970,103.404 175.191 C 102.127 174.412,100.639 173.390,100.096 172.922 L 99.110 172.069 99.718 170.958 C 101.872 167.028,103.369 166.074,106.277 166.783 C 108.109 167.229,108.517 167.390,111.932 169.017 C 114.104 170.051,115.887 170.220,116.644 169.463 C 116.782 169.325,117.051 169.211,117.240 169.211 C 117.568 169.211,118.746 168.720,120.977 167.654 C 121.528 167.391,122.083 167.176,122.210 167.176 C 122.338 167.176,122.803 167.012,123.244 166.813 C 123.685 166.613,124.676 166.171,125.445 165.829 C 128.492 164.477,129.469 164.030,131.464 163.077 C 132.604 162.532,133.663 162.087,133.817 162.087 C 133.971 162.087,134.097 161.972,134.097 161.832 C 134.097 161.692,134.219 161.578,134.367 161.578 C 134.516 161.578,135.232 161.306,135.958 160.975 C 137.353 160.338,139.403 159.492,141.094 158.855 C 141.654 158.644,142.287 158.384,142.502 158.276 C 142.717 158.168,143.259 157.999,143.708 157.901 C 144.156 157.802,144.589 157.616,144.669 157.487 C 144.748 157.358,144.970 157.252,145.162 157.252 C 145.513 157.252,147.587 156.335,151.781 154.326 C 153.041 153.722,154.644 152.976,155.344 152.667 C 159.448 150.855,174.097 143.532,181.743 139.470 C 182.828 138.894,184.545 137.982,185.560 137.444 C 189.542 135.333,192.980 133.436,194.275 132.638 C 194.555 132.465,194.984 132.251,195.229 132.163 C 195.474 132.074,195.674 131.901,195.674 131.777 C 195.674 131.653,195.784 131.552,195.917 131.552 C 196.914 131.552,203.102 125.493,203.695 123.936 C 203.885 123.437,204.225 122.284,204.450 121.374 C 204.676 120.464,204.959 119.377,205.081 118.957 C 205.202 118.537,205.377 117.793,205.469 117.303 C 205.857 115.231,206.758 114.154,208.293 113.927 C 210.070 113.663,214.420 113.750,214.840 114.059 M115.060 115.673 C 116.835 116.591,117.696 118.059,119.425 123.117 C 120.063 124.986,120.763 126.785,120.980 127.115 C 121.374 127.717,132.438 133.333,133.229 133.333 C 133.311 133.333,134.120 133.677,135.027 134.097 C 135.935 134.517,136.718 134.860,136.768 134.860 C 136.819 134.860,137.641 135.213,138.595 135.644 C 139.550 136.075,140.692 136.590,141.133 136.789 C 141.574 136.988,142.000 137.150,142.079 137.150 C 142.208 137.150,143.461 137.689,145.967 138.823 C 146.408 139.023,146.896 139.186,147.052 139.186 C 147.208 139.186,147.534 139.296,147.777 139.431 C 148.469 139.814,150.950 140.876,151.654 141.090 C 152.004 141.197,152.405 141.364,152.545 141.463 C 152.684 141.562,153.372 141.850,154.071 142.102 C 154.771 142.355,155.802 142.761,156.361 143.004 C 156.921 143.247,158.123 143.768,159.033 144.162 C 161.051 145.037,162.197 145.795,161.915 146.069 C 161.486 146.486,158.444 148.102,157.796 148.256 C 157.427 148.344,156.976 148.533,156.795 148.676 C 155.881 149.398,152.029 148.687,148.689 147.181 C 148.248 146.982,147.727 146.819,147.532 146.819 C 147.336 146.819,147.067 146.723,146.934 146.605 C 146.632 146.338,139.334 143.597,138.295 143.360 C 137.875 143.265,137.417 143.101,137.277 142.997 C 137.137 142.892,136.622 142.730,136.132 142.635 C 135.642 142.541,135.013 142.366,134.733 142.246 C 134.258 142.042,129.758 140.659,128.626 140.368 C 128.346 140.297,127.487 140.053,126.718 139.828 C 120.992 138.150,120.285 138.089,118.739 139.139 C 118.159 139.533,116.922 140.380,115.990 141.020 C 111.736 143.945,108.898 143.913,105.270 140.898 C 101.956 138.144,102.987 135.303,109.093 130.363 C 111.816 128.161,111.850 128.118,111.500 127.393 C 110.623 125.576,109.160 122.316,109.159 122.176 C 109.158 122.085,108.972 121.667,108.746 121.247 C 107.998 119.859,108.130 117.337,108.984 116.695 C 110.694 115.410,113.604 114.920,115.060 115.673 M322.646 133.588 C 322.646 133.728,322.990 133.842,323.410 133.842 C 323.830 133.842,324.173 133.946,324.173 134.073 C 324.173 134.200,324.746 134.382,325.445 134.478 C 326.145 134.575,326.718 134.750,326.718 134.868 C 326.718 134.987,327.233 135.161,327.863 135.255 C 328.492 135.349,329.008 135.519,329.008 135.632 C 329.008 135.745,329.351 135.913,329.771 136.005 C 330.191 136.097,330.534 136.278,330.534 136.407 C 330.534 136.536,330.191 136.641,329.771 136.641 C 329.351 136.641,329.008 136.756,329.008 136.896 C 329.008 137.057,327.184 137.150,324.046 137.150 C 320.908 137.150,319.084 137.057,319.084 136.896 C 319.084 136.756,318.798 136.641,318.448 136.641 C 318.098 136.641,317.812 136.527,317.812 136.387 C 317.812 136.247,317.517 136.132,317.157 136.132 C 316.325 136.132,316.858 135.490,317.908 135.227 C 318.275 135.135,318.575 134.966,318.575 134.853 C 318.575 134.739,318.919 134.571,319.338 134.478 C 319.758 134.386,320.102 134.205,320.102 134.076 C 320.102 133.948,320.331 133.842,320.611 133.842 C 320.891 133.842,321.120 133.728,321.120 133.588 C 321.120 133.448,321.463 133.333,321.883 133.333 C 322.303 133.333,322.646 133.448,322.646 133.588 M338.635 143.295 C 338.681 143.414,339.168 143.584,339.716 143.672 C 340.264 143.759,340.712 143.924,340.712 144.037 C 340.712 144.151,341.228 144.321,341.858 144.415 C 342.487 144.510,343.003 144.689,343.003 144.813 C 343.003 144.937,343.289 145.038,343.639 145.038 C 343.989 145.038,344.275 145.141,344.275 145.268 C 344.275 145.394,344.962 145.577,345.802 145.674 C 346.641 145.772,347.328 145.955,347.328 146.081 C 347.328 146.207,347.783 146.310,348.338 146.310 C 349.131 146.310,349.316 146.392,349.201 146.692 C 349.038 147.117,343.511 147.277,343.511 146.857 C 343.511 146.737,342.631 146.565,341.554 146.474 C 340.477 146.383,339.531 146.203,339.452 146.075 C 339.372 145.946,338.593 145.760,337.720 145.661 C 336.847 145.562,336.132 145.382,336.132 145.260 C 336.132 145.138,335.903 145.038,335.623 145.038 C 335.344 145.038,335.115 144.934,335.115 144.806 C 335.115 144.678,334.656 144.497,334.097 144.402 C 333.537 144.307,333.079 144.127,333.079 144.001 C 333.079 143.875,333.537 143.699,334.097 143.609 C 334.656 143.520,335.115 143.355,335.115 143.243 C 335.115 142.751,338.441 142.800,338.635 143.295 M182.109 154.187 C 185.520 155.040,186.379 155.285,186.641 155.479 C 186.781 155.582,187.296 155.750,187.786 155.852 C 188.276 155.955,188.791 156.120,188.931 156.220 C 189.071 156.319,189.758 156.603,190.458 156.850 C 191.158 157.098,192.074 157.446,192.494 157.625 C 192.913 157.804,193.830 158.156,194.529 158.407 C 195.229 158.658,195.910 158.958,196.043 159.075 C 196.176 159.192,196.441 159.288,196.632 159.288 C 196.823 159.288,197.573 159.558,198.299 159.889 C 199.025 160.219,199.905 160.577,200.254 160.683 C 200.604 160.789,201.005 160.958,201.145 161.058 C 201.285 161.158,202.144 161.499,203.053 161.815 C 203.963 162.132,204.936 162.478,205.216 162.585 C 207.801 163.572,211.494 163.752,213.165 162.973 C 213.692 162.728,215.631 161.798,217.475 160.907 C 219.319 160.016,221.001 159.288,221.213 159.288 C 221.425 159.288,221.669 159.173,221.756 159.033 C 222.270 158.201,225.143 159.245,226.514 160.764 C 228.697 163.180,227.673 165.749,223.406 168.560 C 221.072 170.097,220.356 171.062,220.356 172.670 C 220.355 173.918,220.977 177.134,221.362 177.872 C 221.474 178.088,221.644 178.730,221.741 179.299 C 221.928 180.410,222.064 180.219,219.747 182.108 C 218.269 183.313,216.699 183.820,214.416 183.831 L 212.164 183.842 211.335 182.855 C 210.572 181.948,210.489 181.671,210.302 179.420 C 210.038 176.237,209.960 174.953,209.940 173.459 C 209.924 172.247,209.913 172.232,208.715 171.721 C 208.050 171.437,207.163 171.057,206.743 170.877 C 206.323 170.696,205.407 170.343,204.707 170.092 C 204.008 169.841,203.326 169.540,203.193 169.424 C 203.060 169.307,202.802 169.211,202.620 169.211 C 202.437 169.211,201.694 168.925,200.969 168.575 C 200.244 168.225,199.547 167.939,199.421 167.939 C 199.295 167.939,198.450 167.595,197.542 167.176 C 196.635 166.756,195.800 166.412,195.686 166.412 C 195.571 166.412,195.150 166.241,194.749 166.032 C 194.348 165.823,193.843 165.651,193.626 165.650 C 193.409 165.650,193.123 165.548,192.990 165.426 C 192.857 165.303,192.056 164.968,191.211 164.681 C 190.365 164.394,189.392 164.045,189.048 163.905 C 188.704 163.765,186.648 162.999,184.478 162.203 C 182.309 161.407,180.174 160.597,179.733 160.403 C 179.292 160.209,178.818 160.051,178.680 160.051 C 178.542 160.051,178.102 159.880,177.701 159.671 C 177.300 159.462,176.778 159.290,176.542 159.289 C 176.305 159.288,176.041 159.173,175.954 159.033 C 175.868 158.893,175.621 158.779,175.405 158.779 C 174.750 158.779,171.631 157.323,171.209 156.821 C 170.882 156.432,171.471 155.917,173.501 154.815 C 175.849 153.540,178.692 153.332,182.109 154.187 M310.941 162.431 C 310.941 162.796,309.597 163.843,308.945 163.986 C 308.503 164.083,308.142 164.268,308.142 164.397 C 308.142 164.526,307.971 164.631,307.761 164.631 C 307.551 164.631,307.379 164.736,307.379 164.865 C 307.379 164.994,307.036 165.175,306.616 165.267 C 306.196 165.359,305.852 165.532,305.852 165.651 C 305.852 165.770,305.223 165.945,304.453 166.042 C 303.683 166.138,303.053 166.318,303.053 166.442 C 303.053 166.565,301.851 166.667,300.382 166.667 C 298.176 166.667,297.710 166.600,297.710 166.285 C 297.710 166.075,297.882 165.903,298.092 165.903 C 298.302 165.903,298.473 165.802,298.473 165.677 C 298.473 165.553,298.874 165.376,299.364 165.284 C 299.854 165.192,300.254 165.008,300.254 164.874 C 300.254 164.740,300.483 164.631,300.763 164.631 C 301.043 164.631,301.272 164.527,301.272 164.399 C 301.272 164.271,301.730 164.089,302.290 163.995 C 302.850 163.900,303.308 163.727,303.308 163.609 C 303.308 163.492,303.938 163.317,304.707 163.221 C 305.477 163.124,306.107 162.952,306.107 162.837 C 306.107 162.723,306.422 162.582,306.807 162.523 C 307.714 162.386,310.941 162.314,310.941 162.431 M324.682 199.870 C 324.682 200.201,323.756 201.018,323.380 201.018 C 323.147 201.018,322.889 201.190,322.809 201.399 C 322.728 201.609,322.487 201.781,322.273 201.781 C 322.058 201.781,321.883 201.896,321.883 202.036 C 321.883 202.418,320.880 202.341,320.465 201.927 C 319.847 201.308,320.054 201.072,321.374 200.891 C 322.074 200.794,322.646 200.612,322.646 200.485 C 322.646 200.358,322.933 200.254,323.282 200.254 C 323.632 200.254,323.919 200.140,323.919 200.000 C 323.919 199.860,324.090 199.746,324.300 199.746 C 324.510 199.746,324.682 199.801,324.682 199.870 M51.399 230.314 C 51.399 230.613,51.113 231.123,50.763 231.447 C 50.413 231.771,50.127 232.148,50.127 232.283 C 50.127 232.612,48.142 234.606,47.815 234.606 C 47.674 234.606,47.293 234.892,46.969 235.242 C 46.645 235.592,46.263 235.878,46.122 235.878 C 45.980 235.878,45.721 236.050,45.547 236.260 C 44.720 237.256,44.210 236.734,44.320 235.003 C 44.427 233.320,45.651 231.552,46.710 231.552 C 46.910 231.552,47.074 231.438,47.074 231.298 C 47.074 231.158,47.246 231.043,47.455 231.043 C 47.665 231.043,47.837 230.938,47.837 230.809 C 47.837 230.680,48.181 230.499,48.601 230.407 C 49.020 230.315,49.364 230.134,49.364 230.005 C 49.364 229.876,49.822 229.771,50.382 229.771 C 51.251 229.771,51.399 229.850,51.399 230.314 " stroke="none" fill="#9e0000" fill-rule="evenodd"></path><path id="path1" d="M156.743 54.239 C 154.577 54.607,151.595 55.236,150.891 55.473 C 150.541 55.591,149.396 55.933,148.346 56.233 C 147.296 56.533,146.209 56.874,145.929 56.990 C 145.649 57.106,145.019 57.344,144.529 57.519 C 141.860 58.473,139.629 59.566,137.659 60.886 C 134.175 63.220,132.016 66.043,130.417 70.356 C 129.397 73.109,128.931 77.497,129.631 77.766 C 130.538 78.114,132.580 76.020,132.937 74.374 C 133.541 71.593,135.276 69.377,137.944 67.979 C 142.372 65.658,145.017 64.377,145.375 64.377 C 146.459 64.377,145.940 65.950,144.354 67.469 C 143.428 68.357,142.840 68.610,139.444 69.591 C 137.200 70.239,135.999 71.756,137.087 72.568 C 138.184 73.388,138.368 74.809,137.376 74.809 C 137.000 74.809,135.880 75.993,134.850 77.481 C 134.366 78.181,133.911 78.810,133.840 78.880 C 132.117 80.572,131.915 82.105,132.745 87.204 C 132.864 87.939,132.245 90.577,131.803 91.221 C 129.779 94.164,131.164 102.003,134.194 104.756 C 135.524 105.964,136.447 106.483,141.249 108.724 C 143.585 109.814,144.332 110.306,145.743 111.685 C 146.460 112.385,147.575 114.631,147.584 115.394 C 147.601 116.788,148.887 119.608,150.024 120.744 C 151.095 121.816,151.087 121.816,152.632 120.865 C 154.135 119.941,154.681 119.918,156.062 120.718 C 157.108 121.325,157.189 121.332,161.288 121.156 C 165.962 120.956,166.412 120.761,166.412 118.929 C 166.412 117.597,167.253 117.761,168.186 119.275 C 168.595 119.940,169.115 120.744,169.341 121.062 L 169.753 121.640 170.499 121.108 C 171.528 120.376,172.658 118.651,172.910 117.430 C 173.165 116.192,173.184 116.028,173.423 112.914 C 173.612 110.449,173.619 110.430,174.529 109.742 C 175.033 109.360,175.666 108.846,175.935 108.599 C 176.547 108.037,179.342 106.361,179.667 106.361 C 181.163 106.361,183.646 103.441,184.103 101.145 C 184.215 100.585,184.349 99.955,184.402 99.746 C 184.552 99.154,184.543 93.604,184.391 92.748 C 184.265 92.043,183.946 90.547,183.521 88.677 C 183.426 88.257,183.345 86.871,183.341 85.597 C 183.334 83.438,183.433 82.977,184.254 81.364 C 186.646 76.663,183.563 65.744,178.797 62.035 C 178.213 61.581,177.673 61.123,177.597 61.018 C 177.521 60.914,177.000 60.567,176.440 60.248 C 175.879 59.930,174.719 59.200,173.863 58.626 C 173.006 58.053,171.580 57.324,170.695 57.007 C 168.372 56.176,167.403 55.734,166.539 55.112 C 166.120 54.810,165.482 54.436,165.123 54.280 C 164.328 53.936,158.689 53.909,156.743 54.239 M150.651 81.397 C 154.765 83.518,155.999 88.066,153.749 92.820 C 152.638 95.169,152.442 95.243,147.710 95.092 C 139.926 94.844,137.527 92.998,137.721 87.405 C 137.837 84.046,138.411 82.870,140.422 81.880 C 143.032 80.594,148.586 80.332,150.651 81.397 M174.793 83.631 C 183.457 86.429,179.413 99.111,170.659 96.593 C 169.793 96.344,168.626 96.020,168.066 95.873 C 163.918 94.786,163.042 93.870,162.899 90.470 C 162.681 85.289,168.883 81.722,174.793 83.631 M160.123 98.282 C 162.018 100.150,163.920 102.349,164.745 103.625 C 166.262 105.970,163.904 111.287,162.190 109.386 C 161.923 109.091,161.155 108.388,160.483 107.825 L 159.260 106.800 156.370 108.271 C 153.183 109.893,152.672 109.929,152.672 108.536 C 152.672 107.370,153.626 103.211,154.193 101.908 C 156.866 95.761,157.298 95.497,160.123 98.282 M176.747 110.550 C 176.521 110.895,176.227 111.897,176.094 112.777 C 175.472 116.881,175.265 117.773,174.650 119.015 C 173.246 121.849,168.332 125.429,166.802 124.732 C 164.641 123.748,163.748 124.050,161.863 126.406 C 160.789 127.748,160.763 127.746,159.326 126.242 C 157.152 123.967,156.440 123.704,155.289 124.750 C 153.172 126.675,148.683 124.039,146.540 119.611 C 143.966 114.294,142.703 112.354,141.155 111.340 C 139.942 110.545,139.285 111.592,140.205 112.850 C 140.386 113.097,140.754 114.618,140.881 115.649 C 141.415 119.958,142.315 122.143,144.288 123.919 C 144.564 124.167,145.586 125.956,146.643 128.039 C 148.552 131.801,148.954 132.172,152.545 133.482 L 154.580 134.224 160.560 134.205 C 166.685 134.185,167.915 134.031,170.229 132.995 C 171.962 132.220,172.379 131.623,175.492 125.450 L 177.608 121.255 177.608 115.590 C 177.608 109.921,177.515 109.378,176.747 110.550 M208.293 113.927 C 206.758 114.154,205.857 115.231,205.469 117.303 C 205.377 117.793,205.202 118.537,205.081 118.957 C 204.959 119.377,204.676 120.464,204.450 121.374 C 204.225 122.284,203.885 123.437,203.695 123.936 C 203.102 125.493,196.914 131.552,195.917 131.552 C 195.784 131.552,195.674 131.653,195.674 131.777 C 195.674 131.901,195.474 132.074,195.229 132.163 C 194.984 132.251,194.555 132.465,194.275 132.638 C 192.980 133.436,189.542 135.333,185.560 137.444 C 184.545 137.982,182.828 138.894,181.743 139.470 C 174.097 143.532,159.448 150.855,155.344 152.667 C 154.644 152.976,153.041 153.722,151.781 154.326 C 147.587 156.335,145.513 157.252,145.162 157.252 C 144.970 157.252,144.748 157.358,144.669 157.487 C 144.589 157.616,144.156 157.802,143.708 157.901 C 143.259 157.999,142.717 158.168,142.502 158.276 C 142.287 158.384,141.654 158.644,141.094 158.855 C 139.403 159.492,137.353 160.338,135.958 160.975 C 135.232 161.306,134.516 161.578,134.367 161.578 C 134.219 161.578,134.097 161.692,134.097 161.832 C 134.097 161.972,133.971 162.087,133.817 162.087 C 133.663 162.087,132.604 162.532,131.464 163.077 C 129.469 164.030,128.492 164.477,125.445 165.829 C 124.676 166.171,123.685 166.613,123.244 166.813 C 122.803 167.012,122.338 167.176,122.210 167.176 C 122.083 167.176,121.528 167.391,120.977 167.654 C 118.746 168.720,117.568 169.211,117.240 169.211 C 117.051 169.211,116.782 169.325,116.644 169.463 C 115.887 170.220,114.104 170.051,111.932 169.017 C 108.517 167.390,108.109 167.229,106.277 166.783 C 103.369 166.074,101.872 167.028,99.718 170.958 L 99.110 172.069 100.096 172.922 C 100.639 173.390,102.127 174.412,103.404 175.191 C 104.681 175.970,106.412 177.095,107.252 177.691 L 108.779 178.774 108.906 183.598 L 109.033 188.422 110.305 188.754 C 112.604 189.353,116.807 188.662,117.836 187.515 C 118.083 187.240,118.311 186.332,118.418 185.198 C 118.951 179.543,118.961 179.498,119.950 178.151 C 122.047 175.294,125.060 173.401,131.369 170.977 C 133.919 169.998,136.349 169.045,136.768 168.860 C 137.188 168.675,137.933 168.375,138.422 168.192 C 138.912 168.009,139.918 167.591,140.656 167.263 C 141.395 166.935,142.060 166.667,142.133 166.667 C 142.207 166.667,142.805 166.429,143.462 166.139 C 145.144 165.397,146.052 165.007,147.045 164.601 C 147.941 164.235,150.150 163.135,157.252 159.518 C 161.446 157.381,161.861 157.195,164.249 156.371 C 168.495 154.907,168.997 154.643,171.538 152.538 C 174.144 150.380,178.015 148.129,183.333 145.677 C 184.733 145.031,186.508 144.168,187.277 143.758 C 190.585 141.997,196.884 139.002,199.109 138.133 C 199.809 137.859,200.725 137.486,201.145 137.303 C 206.292 135.059,208.147 134.817,212.850 135.777 C 219.419 137.118,221.550 136.364,222.737 132.276 C 223.527 129.559,223.077 128.246,220.921 126.976 C 219.418 126.090,217.557 124.497,217.557 124.096 C 217.557 123.971,217.403 123.507,217.215 123.066 C 216.659 121.766,216.324 120.581,216.053 118.957 C 215.117 113.360,215.423 113.726,211.720 113.779 C 210.242 113.800,208.700 113.866,208.293 113.927 M110.893 115.732 C 108.279 116.664,107.439 118.821,108.746 121.247 C 108.972 121.667,109.158 122.085,109.159 122.176 C 109.160 122.316,110.623 125.576,111.500 127.393 C 111.850 128.118,111.816 128.161,109.093 130.363 C 102.987 135.303,101.956 138.144,105.270 140.898 C 108.898 143.913,111.736 143.945,115.990 141.020 C 116.922 140.380,118.159 139.533,118.739 139.139 C 120.285 138.089,120.992 138.150,126.718 139.828 C 127.487 140.053,128.346 140.297,128.626 140.368 C 129.758 140.659,134.258 142.042,134.733 142.246 C 135.013 142.366,135.642 142.541,136.132 142.635 C 136.622 142.730,137.137 142.892,137.277 142.997 C 137.417 143.101,137.875 143.265,138.295 143.360 C 139.334 143.597,146.632 146.338,146.934 146.605 C 147.067 146.723,147.336 146.819,147.532 146.819 C 147.727 146.819,148.248 146.982,148.689 147.181 C 152.029 148.687,155.881 149.398,156.795 148.676 C 156.976 148.533,157.427 148.344,157.796 148.256 C 158.444 148.102,161.486 146.486,161.915 146.069 C 162.197 145.795,161.051 145.037,159.033 144.162 C 158.123 143.768,156.921 143.247,156.361 143.004 C 155.802 142.761,154.771 142.355,154.071 142.102 C 153.372 141.850,152.684 141.562,152.545 141.463 C 152.405 141.364,152.004 141.197,151.654 141.090 C 150.950 140.876,148.469 139.814,147.777 139.431 C 147.534 139.296,147.208 139.186,147.052 139.186 C 146.896 139.186,146.408 139.023,145.967 138.823 C 143.461 137.689,142.208 137.150,142.079 137.150 C 142.000 137.150,141.574 136.988,141.133 136.789 C 140.692 136.590,139.550 136.075,138.595 135.644 C 137.641 135.213,136.819 134.860,136.768 134.860 C 136.718 134.860,135.935 134.517,135.027 134.097 C 134.120 133.677,133.311 133.333,133.229 133.333 C 132.438 133.333,121.374 127.717,120.980 127.115 C 120.763 126.785,120.063 124.986,119.425 123.117 C 116.926 115.806,115.105 114.230,110.893 115.732 M175.620 153.871 C 174.018 154.177,170.797 156.331,171.209 156.821 C 171.631 157.323,174.750 158.779,175.405 158.779 C 175.621 158.779,175.868 158.893,175.954 159.033 C 176.041 159.173,176.305 159.288,176.542 159.289 C 176.778 159.290,177.300 159.462,177.701 159.671 C 178.102 159.880,178.542 160.051,178.680 160.051 C 178.818 160.051,179.292 160.209,179.733 160.403 C 180.174 160.597,182.309 161.407,184.478 162.203 C 186.648 162.999,188.704 163.765,189.048 163.905 C 189.392 164.045,190.365 164.394,191.211 164.681 C 192.056 164.968,192.857 165.303,192.990 165.426 C 193.123 165.548,193.409 165.650,193.626 165.650 C 193.843 165.651,194.348 165.823,194.749 166.032 C 195.150 166.241,195.571 166.412,195.686 166.412 C 195.800 166.412,196.635 166.756,197.542 167.176 C 198.450 167.595,199.295 167.939,199.421 167.939 C 199.547 167.939,200.244 168.225,200.969 168.575 C 201.694 168.925,202.437 169.211,202.620 169.211 C 202.802 169.211,203.060 169.307,203.193 169.424 C 203.326 169.540,204.008 169.841,204.707 170.092 C 205.407 170.343,206.323 170.696,206.743 170.877 C 207.163 171.057,208.050 171.437,208.715 171.721 C 209.913 172.232,209.924 172.247,209.940 173.459 C 209.960 174.953,210.038 176.237,210.302 179.420 C 210.489 181.671,210.572 181.948,211.335 182.855 L 212.164 183.842 214.416 183.831 C 216.699 183.820,218.269 183.313,219.747 182.108 C 222.064 180.219,221.928 180.410,221.741 179.299 C 221.644 178.730,221.474 178.088,221.362 177.872 C 220.977 177.134,220.355 173.918,220.356 172.670 C 220.356 171.062,221.072 170.097,223.406 168.560 C 227.673 165.749,228.697 163.180,226.514 160.764 C 225.143 159.245,222.270 158.201,221.756 159.033 C 221.669 159.173,221.425 159.288,221.213 159.288 C 221.001 159.288,219.319 160.016,217.475 160.907 C 215.631 161.798,213.692 162.728,213.165 162.973 C 211.494 163.752,207.801 163.572,205.216 162.585 C 204.936 162.478,203.963 162.132,203.053 161.815 C 202.144 161.499,201.285 161.158,201.145 161.058 C 201.005 160.958,200.604 160.789,200.254 160.683 C 199.905 160.577,199.025 160.219,198.299 159.889 C 197.573 159.558,196.823 159.288,196.632 159.288 C 196.441 159.288,196.176 159.192,196.043 159.075 C 195.910 158.958,195.229 158.658,194.529 158.407 C 193.830 158.156,192.913 157.804,192.494 157.625 C 192.074 157.446,191.158 157.098,190.458 156.850 C 189.758 156.603,189.071 156.319,188.931 156.220 C 188.791 156.120,188.276 155.955,187.786 155.852 C 187.296 155.750,186.781 155.582,186.641 155.479 C 186.379 155.285,185.520 155.040,182.109 154.187 C 180.258 153.724,177.176 153.574,175.620 153.871 " stroke="none" fill="#ffffff" fill-rule="evenodd"></path></g></svg>